<svg xmlns="http://www.w3.org/2000/svg" xmlns:xlink="http://www.w3.org/1999/xlink" viewBox="0 0 1430.65 1187.61"><defs><style>.cls-1,.cls-3{fill:none;}.cls-2{clip-path:url(#clip-path);}.cls-3{stroke:#000;stroke-miterlimit:10;stroke-width:40px;}</style><clipPath id="clip-path" transform="translate(22.93 184.27)"><rect class="cls-1" width="1315" height="720"/></clipPath></defs><title>Asset 2</title><g id="Layer_2" data-name="Layer 2"><g id="Layer_4" data-name="Layer 4"><g class="cls-2"><path class="cls-3" d="M-12.71-140s147.26-76.51,232.48,42.27,240.5,58.63,240.5,58.63,145.92-74,262.44,44.83S949.84,41.27,949.84,41.27s143.26-87.83,229.37,29.27,219.5,49.8,219.5,49.8" transform="translate(22.93 184.27)"/><path class="cls-3" d="M-12.71-17.21S134.55-93.72,219.77,25.06s240.5,58.63,240.5,58.63,145.92-74,262.44,44.84,227.13,35.55,227.13,35.55,143.26-87.83,229.37,29.27,219.5,49.8,219.5,49.8" transform="translate(22.93 184.27)"/><path class="cls-3" d="M-13.71,100s147.26-76.51,232.48,42.27,240.5,58.63,240.5,58.63,145.92-74,262.44,44.83,227.13,35.56,227.13,35.56,143.26-87.83,229.37,29.27,219.5,49.8,219.5,49.8" transform="translate(22.93 184.27)"/><path class="cls-3" d="M-13.71,222.79s147.26-76.51,232.48,42.27,240.5,58.63,240.5,58.63,145.92-74,262.44,44.84,227.13,35.55,227.13,35.55,143.26-87.83,229.37,29.27,219.5,49.8,219.5,49.8" transform="translate(22.93 184.27)"/><path class="cls-3" d="M-12.71,340.91s147.26-76.5,232.48,42.27,240.5,58.64,240.5,58.64,145.92-74,262.44,44.83,227.13,35.56,227.13,35.56,143.26-87.84,229.37,29.27,219.5,49.79,219.5,49.79" transform="translate(22.93 184.27)"/><path class="cls-3" d="M-12.71,463.73S134.55,387.22,219.77,506s240.5,58.63,240.5,58.63,145.92-74,262.44,44.83S949.84,645,949.84,645s143.26-87.83,229.37,29.27,219.5,49.8,219.5,49.8" transform="translate(22.93 184.27)"/><path class="cls-3" d="M-13.71,580.91s147.26-76.5,232.48,42.27,240.5,58.64,240.5,58.64,145.92-74,262.44,44.83,227.13,35.56,227.13,35.56,143.26-87.84,229.37,29.27,219.5,49.79,219.5,49.79" transform="translate(22.93 184.27)"/><path class="cls-3" d="M-13.71,703.73S133.55,627.22,218.77,746s240.5,58.63,240.5,58.63,145.92-74,262.44,44.83S948.84,885,948.84,885s143.26-87.83,229.37,29.27,219.5,49.8,219.5,49.8" transform="translate(22.93 184.27)"/></g></g></g></svg>