<svg xmlns="http://www.w3.org/2000/svg" viewBox="0 0 274.92 275.13"><defs><style>.cls-1{fill:#fff;}</style></defs><title>pnts</title><g id="Layer_2" data-name="Layer 2"><g id="Layer_1-2" data-name="Layer 1"><path class="cls-1" d="M0,148.08V126.62c1.07-9.41,2.34-18.8,5.26-27.84Q29.35,24,105.26,3.54c7-1.88,14.2-2.6,21.36-3.54h21.46A188.29,188.29,0,0,1,171.3,4c72,18.3,116.33,90.38,100.36,163.35-16.2,74-91,121.85-164.67,104.13-52.17-12.54-86.07-45.54-102.1-96.78C2.19,166,1,157.05,0,148.08Zm98.71,67.5c.15,3-.13,7.11.61,11.18.16.9-.39,2.26.78,2.59,1,.27,1.69-.86,2.39-1.5,6.82-6.15,11-14,14.32-22.39,3.75-9.61,5.87-19.68,7.93-29.75.61-3,.78-3,3.36-1.35,1.58,1,3.2,2,4.69,3.12,9.47,7.21,20.11,7.45,30.94,4.67,15.41-4,25.31-14.56,32-28.43s8.68-28.8,7-44.17c-1.7-15.7-9.1-28-22-37C159.42,57.62,122.92,55.86,99,72.08,76.92,87,66.7,112.4,73.23,138c2.6,10.21,9.11,16.75,19.19,19.81,2,.61,2.94.05,3.72-1.76a15.11,15.11,0,0,0-1.29-15.31c-5.61-8.32-6-17.46-4-26.81,5.4-24.68,32.78-42.71,57.56-37.75,15.22,3,26,11.47,30,27.1a63,63,0,0,1,.84,26.07c-1.81,11.12-5.52,21.42-13.29,30A23.32,23.32,0,0,1,141.09,166c-5.45-1.9-8.45-5.9-8.68-11.66a29,29,0,0,1,.3-5.34c1.21-8,4.09-15.55,6.31-23.27,1.44-5,2.77-10,2.55-15.26-.27-6.79-3.89-11-10.63-12a14.7,14.7,0,0,0-13.64,4.53c-7.72,8-10.54,23.93-5.84,34.46a9.15,9.15,0,0,1,.54,6.44c-2.34,9-4.56,18-6.87,27C101.46,185.15,98.49,199.56,98.71,215.58Z"/></g></g></svg>