<svg xmlns="http://www.w3.org/2000/svg" viewBox="0 0 145.21 41.37"><defs><style>.cls-1{fill:#fcfcfc;}</style></defs><title>Asset 1</title><g id="Layer_2" data-name="Layer 2"><g id="Layer_4" data-name="Layer 4"><path class="cls-1" d="M36,35.84a5.73,5.73,0,0,1-3.42,4.74,7.63,7.63,0,0,1-7.44-1c-1.62-1.26-4.19-4-3.6-9.6,0-1.14-.54-1.26-2.16-1.5a7.77,7.77,0,0,1-4-1.08,2.67,2.67,0,0,0-3.29.12,5,5,0,0,0-.48,5.82h.06a6.06,6.06,0,0,1-1,6.36,5.29,5.29,0,0,1-4,1.68A10,10,0,0,1,4.46,41,7,7,0,0,1,.08,36a4.69,4.69,0,0,1,1.68-4.5c4-3.9,2.46-6.12.54-8.76-1.74-2.34-3.66-5.16-.9-9.24,1.86-2.52,4.44-4,7-5.46s5-2.88,6.78-5.28A5.07,5.07,0,0,1,18.68.2a6.93,6.93,0,0,1,5.33,1,1.51,1.51,0,0,0,.67.36c2.46,1.5,6.17,3.6,7.13,7.32,1.68,5-.6,7.92-2.4,10.38-1.44,1.8-2.52,3.24-1.73,5.1C28.39,26,29.89,27,31.51,28l1.2.84A7.73,7.73,0,0,1,36,35.84ZM22,11.66c-.19-1.74-1-2.58-2.28-2.58C17.59,9.44,17.18,11,16.7,13c-.61,2.22-1.32,4.92-4.69,6.6a1.63,1.63,0,0,0-.77.6.79.79,0,0,0,.12,1.14c.9.78,3.42,1,4.19.18L17,20.42c.84-.72,1.85-1.38,2.64-2.1A7.89,7.89,0,0,0,22,11.66Z"/><path class="cls-1" d="M90.61,32.36c-.24,3.48-3,6.24-5.94,7.68-4.08,2-8-1.74-12.3-1-4.56.48-9.24,3-14,2a4.57,4.57,0,0,1-3.6-3.42c-1.32-5.64,4.74-14.52,1-24.18a11.24,11.24,0,0,1-1-6.12A7.93,7.93,0,0,1,61.27.08c5.82-.9,9.48,5.7,16.14,7.2a20.8,20.8,0,0,0,4.74.12,6.29,6.29,0,0,1,5.94,3.42c2.22,4.08.72,8.52-.12,13.44C87.67,27.38,90.73,29.36,90.61,32.36ZM72.85,15.86c-1.5,2.7.3,6.18-1.62,8.82C70,27,67,28.28,66.37,30.92c-.66,3.42,4.26,3.42,5.88,1.38,1.8-2.46,3.48-4.86,5.88-6.66s5.64-2.7,6.36-5.94C86.05,14.3,75.07,11.12,72.85,15.86Z"/><path class="cls-1" d="M120.79.26C126-1,128.89,5.78,134.23,5.48c.18-.06.42-.06.6-.12,11.1-3.06,12.36,12.78,2.94,13.26-.9-.18-1.14-.78-1.5-1.5a2.93,2.93,0,0,0-1.2-1.5c-2.76-1.92-5.52,1.92-6.42,4.68a1.53,1.53,0,0,1-.12.42c-1,2.1-2.82,3.6-4.32,5.34-1.56,1.56-3.72,5.22-.78,5.82a3,3,0,0,0,1.8-.18c1.5-.36,3.3-1.92,4.86-2,7-.42,2.34-7.26,9.24-8.76,6.24-1.5,7.14,6.36,4.44,10.32C141.61,34,130.45,43,127.09,41.12c-4.74-3.06-11.46.24-13.8-5.16-2.7-5.34,4.8-10.14-1.38-14.88-.12-.12-.24-.18-.3-.36C105.13,14.54,113.53,2.12,120.79.26Z"/></g></g></svg>