<svg xmlns="http://www.w3.org/2000/svg" viewBox="0 0 362.7 274.87"><defs><style>.cls-1{fill:none;stroke:#fff;stroke-miterlimit:10;stroke-width:4px;}.cls-2{fill:#fff;}</style></defs><title>gm</title><g id="Layer_2" data-name="Layer 2"><g id="Layer_1-2" data-name="Layer 1"><path class="cls-1" d="M360.7,14V260.87a12,12,0,0,1-12,12H321.44V66.79l-138.3,103.3L43.87,66.79V272.87H14a12,12,0,0,1-12-12V14A12,12,0,0,1,14,2H33.06L183.14,113.22,335.29,2H348.7A12,12,0,0,1,360.7,14Z"/><polygon class="cls-2" points="335.29 1 183.14 112.22 33.06 1 335.29 1"/><polygon class="cls-2" points="321.44 66.79 321.44 272.87 43.87 272.87 43.87 66.79 183.14 170.09 321.44 66.79"/></g></g></svg>