<svg xmlns="http://www.w3.org/2000/svg" viewBox="0 0 179.54 174.21"><defs><style>.cls-1{fill:#fff;}.cls-2{fill:none;}</style></defs><title>Asset 2</title><g id="Layer_2" data-name="Layer 2"><g id="Habilidades"><path class="cls-1" d="M80.71,71.66c0,14.91-24,12.25-24,12.25v-25C82.31,54.61,80.71,71.66,80.71,71.66Z"/><path class="cls-1" d="M147.1,0H32.45A32.54,32.54,0,0,0,0,32.45V141.77a32.53,32.53,0,0,0,32.45,32.44H147.1a32.53,32.53,0,0,0,32.44-32.44V32.45A32.54,32.54,0,0,0,147.1,0ZM96.7,70.59C95.63,98.83,68.46,97.76,68.46,97.76H56.74v25l-16,.53V45l24-1.6S97.76,42.35,96.7,70.59Zm51.67,35.7s0,27.7-43.15,14.38V105.75s10.66,6.93,24,4.27c0,0,6-2.14,1.48-6a9.88,9.88,0,0,0-3.24-1.83c-5.18-1.8-25-9.66-22.22-23.57,3.2-16,19.18-16,19.18-16a43.61,43.61,0,0,1,20.78,2.66V79.12h-1.6s-20.78-8.53-23.44,0c0,0-.53,3.19,13.85,9C150.39,94.85,148.37,106.29,148.37,106.29Z"/><path class="cls-2" d="M64.73,43.42l-24,1.6v78.31l16-.53v-25H68.46S95.63,98.83,96.7,70.59,64.73,43.42,64.73,43.42Zm16,28.24c0,14.91-24,12.25-24,12.25v-25C82.31,54.61,80.71,71.66,80.71,71.66Z"/><path class="cls-2" d="M80.71,71.66c0,14.91-24,12.25-24,12.25v-25C82.31,54.61,80.71,71.66,80.71,71.66Z"/><path class="cls-2" d="M80.71,71.66c0,14.91-24,12.25-24,12.25v-25C82.31,54.61,80.71,71.66,80.71,71.66Z"/><path class="cls-2" d="M148.37,106.29s0,27.7-43.15,14.38V105.75s10.66,6.93,24,4.27c0,0,6-2.14,1.48-6a9.88,9.88,0,0,0-3.24-1.83c-5.18-1.8-25-9.66-22.22-23.57,3.2-16,19.18-16,19.18-16a43.61,43.61,0,0,1,20.78,2.66V79.12h-1.6s-20.78-8.53-23.44,0c0,0-.53,3.19,13.85,9C150.39,94.85,148.37,106.29,148.37,106.29Z"/></g></g></svg>