<svg xmlns="http://www.w3.org/2000/svg" viewBox="0 0 174.49 173.76"><defs><style>.cls-1{fill:#fff;}</style></defs><title>Asset 5</title><g id="Layer_2" data-name="Layer 2"><g id="Habilidades"><path class="cls-1" d="M2.25,52.68a6.7,6.7,0,0,0-.08,9.9L28.32,86.79,51,107.49,121.83,172c9.12,2.54,9.37-7.08,9.37-7.08L131,126.69,20.13,43a5.91,5.91,0,0,0-7.47.29Z"/><path class="cls-1" d="M51,107.71l-30.59,23a6.35,6.35,0,0,1-8.24-.52l-10.31-10a6,6,0,0,1,.09-8.73L28.18,87"/><path class="cls-1" d="M78.12,86.94,131,47.46V7s-1-6.07-9.12-5.06L51,66.28"/><path class="cls-1" d="M121.83,172s4,2.54,8.11,1.52,39-18.73,39-18.73,4.05-1.52,5.57-7.09V27.21a12.09,12.09,0,0,0-5.57-8.6L131.45.38a12.34,12.34,0,0,0-9.62,1.52"/><line class="cls-1" x1="130.95" y1="47.46" x2="130.95" y2="126.95"/></g></g></svg>