<svg xmlns="http://www.w3.org/2000/svg" viewBox="0 0 176.57 172.08"><defs><style>.cls-1{fill:#fff;}</style></defs><title>Asset 3</title><g id="Layer_2" data-name="Layer 2"><g id="Habilidades"><polygon class="cls-1" points="72.17 58.75 81.59 89.01 63.24 89.01 72.17 58.75"/><path class="cls-1" d="M144.81,0h-113A31.85,31.85,0,0,0,0,31.76V140.32a31.85,31.85,0,0,0,31.76,31.76H144.81a31.85,31.85,0,0,0,31.76-31.76V31.76A31.85,31.85,0,0,0,144.81,0ZM92,122,85.54,103.5H58.11l-6,18.45h-16L62.1,46.14v-2H82.55v2L109,122Zm41.15,0H116.47V63.1h16.71Zm-8-64.84a9.48,9.48,0,1,1,9.22-9.48A9.35,9.35,0,0,1,125.2,57.11Z"/><polygon class="cls-1" points="81.59 89.01 63.24 89.01 72.17 58.75 81.59 89.01"/><polygon class="cls-1" points="81.59 89.01 63.24 89.01 72.17 58.75 81.59 89.01"/></g></g></svg>