<svg xmlns="http://www.w3.org/2000/svg" viewBox="0 0 42.83 42.81"><defs><style>.cls-1{fill:#fff;}</style></defs><title>Asset 6</title><g id="Layer_2" data-name="Layer 2"><g id="Footer"><path class="cls-1" d="M42.79,11.1a11.5,11.5,0,0,0-1.45-4.91,11.88,11.88,0,0,0-4.78-4.75A11.26,11.26,0,0,0,31.06,0h-20A12.09,12.09,0,0,0,6,1.59,12,12,0,0,0,1.34,6.45,12.19,12.19,0,0,0,0,12.17q0,9.24,0,18.49a12.49,12.49,0,0,0,.52,3.65,11.91,11.91,0,0,0,3,5A11.72,11.72,0,0,0,6.58,41.5a11.34,11.34,0,0,0,4.84,1.26c1.78.05,3.56,0,5.33,0,1.42,0,2.84,0,4.26,0,3.25,0,6.49,0,9.74,0a13.17,13.17,0,0,0,2.43-.24,12.08,12.08,0,0,0,8.6-6.85,11.51,11.51,0,0,0,1-4.72q0-8.11,0-16.23C42.82,13.54,42.86,12.32,42.79,11.1Zm-3,10.31c0,3.15,0,6.3,0,9.44a8.94,8.94,0,0,1-8.37,8.9c-.4,0-.8,0-1.21,0-6.06,0-12.13,0-18.19,0a8.71,8.71,0,0,1-6.86-3.16,8.57,8.57,0,0,1-2.09-5C3,30.92,3,30.2,3,29.48V12.26a9.4,9.4,0,0,1,.86-4.11A8.93,8.93,0,0,1,7.21,4.39a8.61,8.61,0,0,1,4.06-1.33c1.05-.07,2.1,0,3.15,0C20,3,25.5,3,31.05,3A8.49,8.49,0,0,1,36.69,5.2a8.74,8.74,0,0,1,3,5.68c0,.3.06.61.07.92Z"/><path class="cls-1" d="M35.19,9.7a2,2,0,0,1-4,0,2,2,0,0,1,2-2A2,2,0,0,1,35.19,9.7Z"/><path class="cls-1" d="M21.55,11.47A11.17,11.17,0,1,0,32.69,22.66,11.21,11.21,0,0,0,21.55,11.47ZM21.5,30.79a8.14,8.14,0,1,1,8.15-8.13A8.12,8.12,0,0,1,21.5,30.79Z"/></g></g></svg>