<svg xmlns="http://www.w3.org/2000/svg" viewBox="0 0 56.7 46.21"><defs><style>.cls-1{fill:#fff;}</style></defs><title>Asset 7</title><g id="Layer_2" data-name="Layer 2"><g id="Footer"><path class="cls-1" d="M0,41a23.16,23.16,0,0,0,17-4.8L15.89,36a11.5,11.5,0,0,1-6.2-2.81,11.63,11.63,0,0,1-3.32-4.91c-.1-.3-.1-.3.22-.25a11.91,11.91,0,0,0,4.53-.14.77.77,0,0,0,.25-.11c-.21-.06-.42-.11-.63-.18A11.51,11.51,0,0,1,3.63,22,11.33,11.33,0,0,1,2.21,17.1c0-.17,0-.35,0-.52s0-.34.3-.2a10.93,10.93,0,0,0,2.53,1,13.51,13.51,0,0,0,2.28.35l.09,0c-.37-.3-.75-.56-1.09-.86a11.78,11.78,0,0,1-2.55-3.16A11.67,11.67,0,0,1,3.18,3.54c.16-.37.34-.73.52-1.09s.18-.33.4-.06A35.27,35.27,0,0,0,6.67,5.15a32.55,32.55,0,0,0,6.58,4.9,32.83,32.83,0,0,0,8.4,3.34,32.74,32.74,0,0,0,5.12.84l.92.07c.17,0,.19,0,.16-.19a11.25,11.25,0,0,1-.24-2.84,11.45,11.45,0,0,1,2.52-6.84A11.71,11.71,0,0,1,44.2,1.09a11.58,11.58,0,0,1,3.48,2.48.3.3,0,0,0,.3.07,22.48,22.48,0,0,0,4.16-1.28A22.78,22.78,0,0,0,55,1a.24.24,0,0,1,.23-.06,11.91,11.91,0,0,1-4.92,6.31A22.31,22.31,0,0,0,56.68,5.5c0,.09,0,.13,0,.18a23,23,0,0,1-4.54,5l-1,.78a.29.29,0,0,0-.15.27,25.26,25.26,0,0,1,0,3.48,32.47,32.47,0,0,1-.56,4.16,34.52,34.52,0,0,1-1.92,6.36A34.22,34.22,0,0,1,42.78,35a31.65,31.65,0,0,1-8.9,7.26,31.82,31.82,0,0,1-10.6,3.54,36.14,36.14,0,0,1-3.74.37c-.92,0-1.83,0-2.74,0a33.33,33.33,0,0,1-8.41-1.34,34.27,34.27,0,0,1-5.77-2.32A28.78,28.78,0,0,1,.1,41.08S0,41.05,0,41Z"/></g></g></svg>